<svg xmlns="http://www.w3.org/2000/svg" viewBox="0 0 520 520" role="img" aria-label="Visualização geométrica derivada do 3MF G-CHV-JJ-01; não é fotografia"><defs><linearGradient id="g" x2="0.85" y2="0.75"><stop stop-color="#a7795b"/><stop offset="1" stop-color="#24302f"/></linearGradient></defs><rect width="520" height="520" fill="#f7f5f0"/><g transform="scale(2)" fill="url(#g)"><path d="M166,75 L166,78 L164,78 L163,97 L169,97 L170,95 L171,97 L175,97 L177,96 L178,97 L182,97 L183,91 L176,91 L176,89 L178,88 L183,89 L183,80 L178,81 L178,88 L177,89 L176,79 L171,79 L171,87 L170,88 L170,78 L169,78 L169,75Z"/><path d="M191,76 L190,79 L189,79 L187,97 L189,98 L193,98 L194,97 L195,97 L196,98 L200,99 L201,97 L207,98 L208,95 L208,92 L201,92 L202,81 L197,81 L197,87 L195,90 L196,91 L194,91 L195,79 L193,79 L193,76Z"/><path d="M142,75 L141,77 L140,78 L140,96 L145,97 L146,94 L147,96 L152,96 L152,95 L159,96 L159,90 L152,89 L153,88 L152,88 L152,78 L147,78 L147,86 L146,87 L146,78 L144,78 L144,75Z"/><path d="M190,103 L189,105 L187,106 L186,123 L191,124 L193,122 L194,124 L198,124 L199,123 L202,124 L206,123 L206,118 L199,118 L201,116 L200,115 L200,107 L195,107 L194,116 L194,115 L195,117 L192,117 L193,106 L192,105 L192,103Z"/><path d="M166,102 L163,106 L163,122 L168,122 L169,121 L170,122 L175,122 L175,121 L181,122 L182,117 L176,117 L175,116 L175,106 L171,105 L170,113 L169,105 L168,102Z"/><path d="M142,101 L142,104 L140,104 L140,121 L145,122 L146,120 L148,121 L152,121 L152,120 L158,121 L159,116 L153,116 L152,115 L153,114 L152,112 L152,105 L147,105 L147,113 L146,113 L146,104 L145,104 L144,101Z"/><path d="M53,61 L52,65 L54,83 L59,83 L58,65 L55,61Z"/><path d="M99,146 L99,153 L98,154 L99,155 L93,155 L93,159 L98,159 L100,161 L104,161 L104,160 L110,160 L110,156 L104,155 L105,154 L103,151 L103,147Z"/><path d="M103,67 L103,85 L108,85 L108,67Z"/><path d="M70,140 L68,144 L69,158 L74,159 L73,144Z"/><path d="M155,78 L154,87 L159,87 L159,79Z"/><path d="M204,81 L203,89 L204,90 L208,90 L209,81Z"/><path d="M202,108 L201,115 L206,116 L207,108Z"/><path d="M154,105 L154,113 L159,113 L159,105Z"/><path d="M177,107 L177,114 L176,115 L181,115 L182,107Z"/><path d="M60,97 L61,104 L65,105 L65,98Z"/><path d="M74,172 L75,179 L78,179 L78,173Z"/></g><rect x="14" y="14" width="244" height="30" rx="11" fill="#24302f"/><text x="25" y="34" font-family="sans-serif" font-size="13" fill="white">SILHUETA DA GEOMETRIA 3MF</text><rect y="476" width="520" height="44" fill="#f7f5f0"/><text x="20" y="493" font-family="sans-serif" font-size="13" fill="#24302f">G-CHV-JJ-01 · visualização digital</text><text x="20" y="508" font-family="sans-serif" font-size="10" fill="#667471">Não é foto ou prova de fabricação · staging</text></svg>