<svg xmlns="http://www.w3.org/2000/svg" viewBox="0 0 520 520" role="img" aria-label="Visualização geométrica derivada do 3MF G-ORG-RC-01; não é fotografia"><defs><linearGradient id="g" x2="0.85" y2="0.75"><stop stop-color="#52776d"/><stop offset="1" stop-color="#24302f"/></linearGradient></defs><rect width="520" height="520" fill="#f7f5f0"/><g transform="scale(2)" fill="url(#g)"><path d="M39,121 L40,135 L45,146 L49,152 L60,161 L69,165 L82,167 L100,172 L106,173 L156,185 L164,186 L165,187 L167,186 L168,187 L180,186 L182,185 L186,184 L193,179 L221,147 L224,139 L225,133 L224,121 L219,110 L211,101 L200,95 L188,93 L187,92 L182,93 L181,92 L174,92 L173,91 L164,91 L163,90 L101,83 L92,85 L51,98 L46,103 L42,108Z"/></g><rect x="14" y="14" width="244" height="30" rx="11" fill="#24302f"/><text x="25" y="34" font-family="sans-serif" font-size="13" fill="white">SILHUETA DA GEOMETRIA 3MF</text><rect y="476" width="520" height="44" fill="#f7f5f0"/><text x="20" y="493" font-family="sans-serif" font-size="13" fill="#24302f">G-ORG-RC-01 · visualização digital</text><text x="20" y="508" font-family="sans-serif" font-size="10" fill="#667471">Não é foto ou prova de fabricação · staging</text></svg>