<svg xmlns="http://www.w3.org/2000/svg" viewBox="0 0 520 520" role="img" aria-label="Visualização geométrica derivada do 3MF G-ORG-HS-01; não é fotografia"><defs><linearGradient id="g" x2="0.85" y2="0.75"><stop stop-color="#557d80"/><stop offset="1" stop-color="#24302f"/></linearGradient></defs><rect width="520" height="520" fill="#f7f5f0"/><g transform="scale(2)" fill="url(#g)" fill-rule="evenodd"><path d="M104,50 L95,55 L93,57 L92,62 L116,128 L116,171 L114,174 L85,193 L83,195 L83,199 L84,201 L92,202 L120,194 L128,199 L152,219 L159,221 L170,220 L174,218 L180,212 L180,209 L171,198 L144,171 L142,166 L142,158 L142,120 L166,62 L167,57 L157,51 L138,46 L121,46Z"/><path d="M123,62 L132,63 L138,66 L130,95 L127,88 L121,63Z"/></g><rect x="14" y="14" width="244" height="30" rx="11" fill="#24302f"/><text x="25" y="34" font-family="sans-serif" font-size="13" fill="white">SILHUETA DA GEOMETRIA 3MF</text><rect y="476" width="520" height="44" fill="#f7f5f0"/><text x="20" y="493" font-family="sans-serif" font-size="13" fill="#24302f">G-ORG-HS-01 · visualização digital</text><text x="20" y="508" font-family="sans-serif" font-size="10" fill="#667471">Não é foto ou prova de fabricação · staging</text></svg>